<?xml version="1.0" encoding="UTF-8"?>
<svg id="Layer_2" data-name="Layer 2" xmlns="http://www.w3.org/2000/svg" xmlns:xlink="http://www.w3.org/1999/xlink" viewBox="0 0 704.47 197.34">
  <defs>
    <clipPath id="clippath">
      <rect width="704.47" height="197.34" style="fill: none;"/>
    </clipPath>
    <clipPath id="clippath-1">
      <rect width="704.47" height="197.34" style="fill: none;"/>
    </clipPath>
  </defs>
  <g id="Layer_1-2" data-name="Layer 1">
    <g>
      <line x1="310.02" y1="32.81" x2="310.02" y2="165.41" style="fill: none; stroke: #231f20; stroke-miterlimit: 10; stroke-width: .23px;"/>
      <path d="M637.93,66.3l-22.03,32.26,22.94,33.36h-13.16l-16.73-24.68-16.82,24.68h-12.8l22.94-33.36-22.12-32.26h13.16l15.9,23.49,15.9-23.49h12.8ZM530.29,66.3h44.42v10.24h-32.9v16.45h27.69v10.24h-27.69v18.46h32.9v10.24h-44.42v-65.62ZM480.13,131.92v-65.62h11.7v55.39h30.89v10.24h-42.59ZM438.89,131.92h-11.52v-65.62h43.78v10.24h-32.26v17.82h27.05v10.24h-27.05v27.33Z" style="fill: #010101;"/>
      <rect x="359.73" y="112.24" width="5.55" height="19.69" style="fill: #010101;"/>
      <rect x="345.6" y="112.24" width="12.62" height="19.69" style="fill: #010101;"/>
      <rect x="345.6" y="66.3" width="26.76" height="19.69" style="fill: #010101;"/>
      <rect x="373.87" y="66.3" width="5.55" height="19.69" style="fill: #010101;"/>
      <rect x="380.94" y="66.3" width="5.55" height="19.69" style="fill: #010101;"/>
      <rect x="388" y="66.3" width="5.55" height="19.69" style="fill: #010101;"/>
      <rect x="395.07" y="66.3" width="5.55" height="19.69" style="fill: #010101;"/>
      <rect x="402.14" y="66.3" width="5.55" height="19.69" style="fill: #010101;"/>
      <rect x="345.6" y="89.27" width="5.55" height="19.69" style="fill: #010101;"/>
      <rect x="352.66" y="89.27" width="5.55" height="19.69" style="fill: #010101;"/>
      <rect x="359.73" y="89.27" width="5.55" height="19.69" style="fill: #010101;"/>
      <rect x="366.8" y="89.27" width="19.69" height="19.69" style="fill: #010101;"/>
      <polygon points="86.67 106.66 74.09 106.66 74.09 112.7 85.68 112.7 85.68 118.58 74.09 118.58 74.09 132.15 66.61 132.15 66.61 100.78 86.67 100.78 86.67 106.66" style="fill: #05573e;"/>
      <g style="clip-path: url(#clippath);">
        <path d="M102.03,129.64c-.47.43-.9.8-1.27,1.14-.38.33-.89.67-1.53,1.01-.63.31-1.23.55-1.83.72-.59.15-1.41.24-2.48.24-1.98,0-3.61-.7-4.92-2.11-1.31-1.41-1.97-3.18-1.97-5.33,0-1.76.33-3.18,1-4.26.66-1.08,1.62-1.94,2.86-2.58,1.27-.65,2.78-1.09,4.52-1.35,1.76-.25,3.64-.45,5.66-.59v-.13c0-1.31-.45-2.23-1.37-2.73-.9-.52-2.27-.76-4.08-.76-.82,0-1.79.16-2.88.49-1.1.32-2.18.74-3.23,1.26h-.6v-5.69c.69-.21,1.83-.45,3.37-.75,1.55-.29,3.11-.43,4.7-.43,3.87,0,6.68.68,8.45,2.04,1.76,1.35,2.65,3.42,2.65,6.21v16.11h-7.05v-2.51ZM102.03,125.93v-4.93c-1.17.12-2.13.23-2.87.31-.73.11-1.45.28-2.15.55-.61.22-1.09.57-1.43,1.02-.34.46-.5,1.07-.5,1.83,0,1.12.28,1.88.85,2.29.58.42,1.41.63,2.51.63.6,0,1.24-.15,1.87-.45.63-.29,1.21-.7,1.72-1.24" style="fill: #05573e;"/>
        <path d="M128.97,115.56h-.59c-.26-.11-.64-.17-1.15-.23-.51-.05-1.06-.07-1.67-.07-.72,0-1.5.1-2.29.32-.81.23-1.58.51-2.34.81v15.77h-7.04v-23.68h7.04v3.47c.31-.31.77-.7,1.32-1.18.57-.46,1.08-.84,1.54-1.13.51-.31,1.09-.59,1.76-.82.67-.23,1.3-.35,1.9-.35.22,0,.48.01.75.02.28,0,.53.03.77.06v7.01Z" style="fill: #05573e;"/>
        <path d="M158.19,132.15v-11.81c0-1.17,0-2.16-.06-2.95-.04-.81-.16-1.45-.36-1.97-.2-.51-.52-.86-.94-1.09-.43-.23-1.02-.35-1.78-.35-.54,0-1.06.12-1.59.36-.52.26-1.1.6-1.71,1.05v16.77h-7.03v-11.81c0-1.15-.03-2.13-.08-2.94-.05-.81-.18-1.46-.37-1.98-.2-.51-.52-.86-.93-1.09-.43-.23-1.01-.35-1.76-.35-.58,0-1.15.14-1.69.41-.55.28-1.09.61-1.6.99v16.77h-7.04v-23.69h7.04v2.66c1.15-1.04,2.23-1.83,3.25-2.4,1.02-.58,2.16-.87,3.44-.87,1.37,0,2.58.33,3.63,1.02,1.05.69,1.84,1.72,2.39,3.08,1.35-1.32,2.62-2.34,3.81-3.05,1.2-.7,2.42-1.05,3.66-1.05,1.03,0,1.98.17,2.8.52.82.36,1.53.88,2.1,1.58.63.76,1.1,1.66,1.42,2.71.32,1.04.47,2.41.47,4.09v15.39h-7.05Z" style="fill: #05573e;"/>
      </g>
      <rect x="170.11" y="99.34" width="7.04" height="32.81" style="fill: #05573e;"/>
      <g style="clip-path: url(#clippath-1);">
        <path d="M194.44,129.64c-.47.43-.9.8-1.28,1.14-.38.33-.89.67-1.53,1.01-.63.31-1.24.55-1.82.72-.58.15-1.42.24-2.48.24-1.98,0-3.62-.7-4.93-2.11-1.3-1.41-1.96-3.18-1.96-5.33,0-1.76.32-3.18.99-4.26.66-1.08,1.62-1.94,2.87-2.58,1.25-.65,2.77-1.09,4.5-1.35,1.76-.25,3.65-.45,5.68-.59v-.13c0-1.31-.46-2.23-1.38-2.73-.89-.52-2.27-.76-4.08-.76-.83,0-1.79.16-2.89.49-1.1.32-2.18.74-3.23,1.26h-.59v-5.69c.7-.21,1.82-.45,3.37-.75,1.54-.29,3.1-.43,4.68-.43,3.87,0,6.69.68,8.45,2.04,1.77,1.35,2.66,3.42,2.66,6.21v16.11h-7.04v-2.51ZM194.44,125.93v-4.93c-1.19.12-2.14.23-2.88.31-.73.11-1.44.28-2.14.55-.63.22-1.1.57-1.44,1.02-.32.46-.5,1.07-.5,1.83,0,1.12.29,1.88.84,2.29.56.42,1.4.63,2.51.63.61,0,1.24-.15,1.88-.45.64-.29,1.2-.7,1.74-1.24" style="fill: #05573e;"/>
        <path d="M227.42,132.15h-7.03v-11.73c0-.96-.05-1.91-.11-2.86-.07-.95-.22-1.65-.43-2.1-.24-.53-.57-.91-1.04-1.14-.46-.23-1.06-.35-1.83-.35-.58,0-1.15.1-1.75.33-.59.22-1.22.58-1.89,1.07v16.77h-7.05v-23.69h7.05v2.66c1.16-1.04,2.28-1.83,3.37-2.4,1.09-.58,2.29-.87,3.61-.87,2.32,0,4.07.76,5.28,2.27,1.23,1.53,1.83,3.73,1.83,6.63v15.39Z" style="fill: #05573e;"/>
        <path d="M252.65,132.15h-7.05v-2.47c-.45.39-.96.81-1.56,1.27-.57.45-1.08.78-1.53,1-.55.3-1.11.54-1.66.7-.55.16-1.2.24-1.97.24-2.58,0-4.61-1.12-6.1-3.36-1.5-2.25-2.25-5.24-2.25-8.97,0-2.08.26-3.88.77-5.39.51-1.52,1.21-2.84,2.1-3.97.82-1.03,1.81-1.83,2.98-2.45,1.17-.6,2.38-.89,3.7-.89,1.17,0,2.15.13,2.9.39.75.25,1.63.66,2.63,1.2v-10.12h7.05v32.81ZM245.6,125.75v-11.73c-.35-.2-.79-.34-1.35-.46-.57-.13-1.05-.18-1.45-.18-1.67,0-2.94.63-3.79,1.88-.84,1.25-1.27,2.99-1.27,5.23,0,2.37.34,4.07,1.01,5.12.67,1.05,1.76,1.58,3.27,1.58.62,0,1.23-.13,1.86-.39.64-.25,1.21-.6,1.72-1.04" style="fill: #05573e;"/>
        <path d="M264.48,132.75c-1.64,0-3.2-.18-4.67-.56-1.48-.38-2.69-.83-3.67-1.34v-6.25h.59c.32.26.71.56,1.13.88.43.31,1.01.64,1.77.99.65.31,1.39.59,2.2.81.81.23,1.7.35,2.65.35s1.84-.15,2.59-.46c.75-.31,1.14-.8,1.14-1.47,0-.54-.19-.96-.52-1.23-.36-.29-1.02-.55-2.02-.81-.53-.14-1.2-.29-2.01-.45-.81-.18-1.53-.35-2.14-.56-1.76-.58-3.08-1.43-3.96-2.56-.88-1.13-1.32-2.61-1.32-4.44,0-1.05.23-2.05.68-2.98.46-.94,1.14-1.76,2.04-2.49.89-.72,1.99-1.28,3.31-1.71,1.3-.42,2.79-.62,4.45-.62s3.03.16,4.35.48c1.32.34,2.44.74,3.34,1.2v6h-.55c-.25-.2-.62-.45-1.14-.77-.52-.32-1.02-.61-1.52-.84-.58-.27-1.22-.51-1.95-.68-.73-.19-1.47-.28-2.21-.28-1.01,0-1.88.17-2.56.52-.7.36-1.05.82-1.05,1.39,0,.53.18.96.52,1.27.35.3,1.1.6,2.25.9.59.15,1.29.3,2.05.45.79.15,1.53.35,2.25.6,1.61.54,2.82,1.35,3.65,2.41.84,1.05,1.25,2.45,1.25,4.21,0,1.1-.24,2.17-.74,3.16-.49,1-1.2,1.84-2.08,2.54-.97.73-2.11,1.31-3.4,1.72-1.29.4-2.86.61-4.67.61" style="fill: #05573e;"/>
        <path d="M66.59,78.03s37.54-7.63,73.23-7.63c52.5,0,62.45,5.14,100.4,8.15,16.28,1.38,30.19,2,31.01,2.08,1.58.14,4.15.17,4.15.17v-14.5H66.59v11.73Z" style="fill: #f89822;"/>
        <path d="M66.59,81.82v8.44h208.8v-8.07s-26.33-1.24-41.29-2.48c-27.14-2.25-43.04-6.02-66.23-6.54-11.72-.25-22.14-.97-50.83,1.29-5.35.42-25.3,2.78-34.66,4.61-3.42.68-15.78,2.74-15.78,2.74" style="fill: #05573e;"/>
      </g>
    </g>
  </g>
</svg>